#
#
#

mtllib door.mtl


#
# pCube1 Mesh Mesh
#
g pCube1 Mesh Mesh


#
# pCube1 Mesh Mesh_pCube1 Mesh_lambert2SG
#
usemtl pCube1 Mesh Mesh_pCube1 Mesh_lambert2SG

v -0.500286 -0.500000 -0.496161
v -0.499697 -0.500000 0.558291
v -0.499697 0.500000 0.558291
v -0.500286 0.500000 -0.496161
v 0.500286 0.500000 0.496161
v 0.499697 0.500000 -0.558291
v 0.500286 -0.500000 0.496161
v 0.499697 -0.500000 -0.558291
vn -0.999983 0.000000 0.005893
vn 0.000000 1.000000 0.000000
vn 0.999983 0.000000 -0.005893
vn 0.000000 -1.000000 0.000000
vn 0.005893 0.000000 0.999983
vn -0.005893 0.000000 -0.999983
vt 0.001891 0.001992
vt 0.331370 0.001992
vt 0.331370 0.331472
vt 0.001891 0.331472
vt 0.338705 0.001992
vt 0.668185 0.001992
vt 0.668185 0.331472
vt 0.338705 0.331472
vt 0.617659 0.335260
vt 0.947139 0.335260
vt 0.947139 0.664740
vt 0.617659 0.664740
vt 0.282356 0.335260
vt 0.611836 0.335260
vt 0.611836 0.664740
vt 0.282356 0.664740
vt 0.001891 0.668528
vt 0.331370 0.668528
vt 0.331370 0.998008
vt 0.001891 0.998008
vt 0.338705 0.668528
vt 0.668185 0.668528
vt 0.668185 0.998008
vt 0.338705 0.998008
f 1/1/1 2/2/1 3/3/1 4/4/1
f 4/5/2 3/6/2 5/7/2 6/8/2
f 6/9/3 5/10/3 7/11/3 8/12/3
f 8/13/4 7/14/4 2/15/4 1/16/4
f 2/17/5 7/18/5 5/19/5 3/20/5
f 8/21/6 1/22/6 4/23/6 6/24/6
