#
#
#

mtllib Pillar.mtl


#
# pCylinder1 Mesh
#
g pCylinder1 Mesh


#
# pCylinder1 Mesh_pCylinder1SG
#
usemtl pCylinder1 Mesh_pCylinder1SG

v 0.409703 -0.495591 -0.173820
v 0.315616 -0.495591 -0.314632
v 0.315616 0.331885 -0.314632
v 0.409703 0.331885 -0.173820
v 0.174804 -0.495591 -0.408720
v 0.174804 0.331885 -0.408720
v 0.008705 -0.495591 -0.441759
v 0.008705 0.331885 -0.441759
v -0.157394 -0.495591 -0.408720
v -0.157394 0.331885 -0.408720
v -0.298206 -0.495591 -0.314633
v -0.298206 0.331885 -0.314633
v -0.392294 -0.495591 -0.173821
v -0.392294 0.331885 -0.173821
v -0.425333 -0.495591 -0.007722
v -0.425333 0.331885 -0.007722
v -0.392294 -0.495591 0.158377
v -0.392294 0.331885 0.158377
v -0.298206 -0.495591 0.299190
v -0.298206 0.331885 0.299190
v -0.157394 -0.495591 0.393277
v -0.157394 0.331885 0.393277
v 0.008705 -0.495591 0.426316
v 0.008705 0.331885 0.426316
v 0.174804 -0.495591 0.393277
v 0.174804 0.331885 0.393277
v 0.315616 -0.495591 0.299190
v 0.315616 0.331885 0.299190
v 0.409703 -0.495591 0.158377
v 0.409703 0.331885 0.158377
v 0.442742 -0.495591 -0.007722
v 0.442742 0.331885 -0.007722
v 0.357741 0.295435 -0.152297
v 0.275846 0.295435 -0.274862
v 0.008705 0.295435 -0.007722
v 0.153281 0.295435 -0.356758
v 0.008705 0.295435 -0.385516
v -0.135871 0.295435 -0.356758
v -0.258436 0.295435 -0.274863
v -0.340332 0.295435 -0.152298
v -0.369090 0.295435 -0.007722
v -0.340332 0.295435 0.136854
v -0.258436 0.295435 0.259419
v -0.135871 0.295435 0.341315
v 0.008705 0.295435 0.370073
v 0.153280 0.295435 0.341315
v 0.275846 0.295435 0.259419
v 0.357741 0.295435 0.136854
v 0.386499 0.295435 -0.007722
v 0.374470 0.331885 -0.373486
v 0.486600 0.331885 -0.205672
v 0.206655 0.331885 -0.485616
v 0.008705 0.331885 -0.524991
v -0.189245 0.331885 -0.485617
v -0.357060 0.331885 -0.373487
v -0.469190 0.331885 -0.205672
v -0.508565 0.331885 -0.007722
v -0.469190 0.331885 0.190228
v -0.357060 0.331885 0.358043
v -0.189246 0.331885 0.470173
v 0.008705 0.331885 0.509548
v 0.206655 0.331885 0.470173
v 0.374469 0.331885 0.358043
v 0.486600 0.331885 0.190229
v 0.525974 0.331885 -0.007722
v 0.374470 0.464307 -0.373486
v 0.486600 0.464307 -0.205672
v 0.206655 0.464307 -0.485616
v 0.008705 0.464307 -0.524991
v -0.189245 0.464307 -0.485617
v -0.357060 0.464307 -0.373487
v -0.469190 0.464307 -0.205672
v -0.508565 0.464307 -0.007722
v -0.469190 0.464307 0.190229
v -0.357060 0.464307 0.358043
v -0.189246 0.464307 0.470173
v 0.008705 0.464307 0.509548
v 0.206655 0.464307 0.470173
v 0.374469 0.464307 0.358043
v 0.486600 0.464307 0.190229
v 0.525974 0.464307 -0.007722
v 0.275846 0.464307 -0.274862
v 0.357741 0.464307 -0.152297
v 0.374470 0.522382 -0.373486
v 0.206655 0.522382 -0.485616
v 0.153281 0.522382 -0.356758
v 0.275846 0.522382 -0.274862
v 0.008705 0.464307 -0.385516
v 0.153281 0.464307 -0.356758
v 0.008705 0.522382 -0.524991
v -0.189245 0.522382 -0.485617
v -0.135871 0.522382 -0.356758
v 0.008705 0.522382 -0.385516
v -0.258436 0.464307 -0.274863
v -0.135871 0.464307 -0.356758
v -0.357060 0.522382 -0.373487
v -0.469190 0.522382 -0.205672
v -0.340332 0.522382 -0.152297
v -0.258436 0.522382 -0.274863
v -0.369090 0.464307 -0.007722
v -0.340332 0.464307 -0.152297
v -0.508565 0.522382 -0.007722
v -0.469190 0.522382 0.190229
v -0.340332 0.522382 0.136854
v -0.369090 0.522382 -0.007722
v -0.258436 0.464307 0.259419
v -0.340332 0.464307 0.136854
v -0.357060 0.522382 0.358043
v -0.189246 0.522382 0.470173
v -0.135871 0.522382 0.341315
v -0.258436 0.522382 0.259419
v 0.008705 0.464307 0.370073
v -0.135871 0.464307 0.341315
v 0.008705 0.522382 0.509548
v 0.206655 0.522382 0.470173
v 0.153280 0.522382 0.341315
v 0.008705 0.522382 0.370073
v 0.275846 0.464307 0.259419
v 0.153280 0.464307 0.341315
v 0.374469 0.522382 0.358043
v 0.486600 0.522382 0.190229
v 0.357741 0.522382 0.136854
v 0.275846 0.522382 0.259419
v 0.386499 0.464307 -0.007722
v 0.357741 0.464307 0.136854
v 0.525974 0.522382 -0.007722
v 0.486600 0.522382 -0.205672
v 0.357741 0.522382 -0.152297
v 0.386499 0.522382 -0.007722
vn 0.923879 0.000000 -0.382684
vn 0.707107 0.000000 -0.707106
vn 0.382684 0.000000 -0.923879
vn 0.000000 0.000000 -1.000000
vn -0.382682 0.000000 -0.923880
vn -0.707107 0.000000 -0.707107
vn -0.923879 0.000000 -0.382684
vn -1.000000 0.000000 0.000000
vn -0.923880 0.000000 0.382683
vn -0.707107 0.000000 0.707106
vn -0.382682 0.000000 0.923880
vn -0.000001 0.000000 1.000000
vn 0.382681 0.000000 0.923881
vn 0.707108 0.000000 0.707106
vn 0.923880 0.000000 0.382683
vn 1.000000 0.000000 0.000000
vn 0.000000 1.000000 0.000000
vn 0.000000 -1.000000 0.000000
vn 0.923880 0.000000 -0.382683
vn 0.707107 0.000000 -0.707107
vn 0.681375 0.000000 -0.731934
vn 0.936970 0.000000 -0.349409
vn 0.382684 0.000000 -0.923879
vn 0.415468 0.000000 -0.909608
vn 0.000001 0.000000 -1.000000
vn -0.035749 0.000000 -0.999361
vn -0.382683 0.000000 -0.923880
vn -0.349409 0.000000 -0.936970
vn -0.731934 0.000000 -0.681376
vn -0.909608 0.000000 -0.415468
vn -1.000000 0.000000 -0.000001
vn -0.999361 0.000000 0.035750
vn -0.923880 0.000000 0.382682
vn -0.936970 0.000000 0.349409
vn -0.681376 0.000000 0.731934
vn -0.382683 0.000000 0.923880
vn -0.415467 0.000000 0.909608
vn 0.035750 0.000000 0.999361
vn 0.382683 0.000000 0.923880
vn 0.349409 0.000000 0.936970
vn 0.707107 0.000000 0.707106
vn 0.731935 0.000000 0.681375
vn 0.909608 0.000000 0.415467
vn 0.999361 0.000000 -0.035750
vn -0.934650 0.000000 0.355570
vn -0.686178 0.000001 0.727434
vn -0.707107 0.000001 0.707107
vn -0.923879 0.000000 0.382684
vn -0.409473 0.000001 0.912322
vn -0.382684 0.000002 0.923879
vn 0.029170 0.000001 0.999574
vn -0.000002 0.000001 1.000000
vn 0.355569 0.000000 0.934650
vn 0.727433 0.000000 0.686179
vn 0.707106 -0.000001 0.707107
vn 0.912322 -0.000001 0.409473
vn 0.923879 -0.000001 0.382685
vn 0.999574 0.000000 -0.029172
vn 0.934650 0.000000 -0.355569
vn 0.686178 0.000000 -0.727434
vn 0.409473 0.000000 -0.912322
vn 0.382685 0.000001 -0.923879
vn -0.029172 0.000000 -0.999574
vn -0.355570 0.000000 -0.934650
vn -0.382684 0.000000 -0.923879
vn -0.727434 -0.000000 -0.686178
vn -0.912323 -0.000000 -0.409472
vn -0.923879 -0.000000 -0.382684
vn -0.999574 0.000000 0.029172
vn 0.555570 0.000000 -0.831470
vn -0.555571 0.000000 0.831469
vn 0.707107 0.000000 0.707107
vn -0.195089 0.000000 -0.980786
vn 0.195089 0.000000 0.980786
vn 1.000000 0.000000 0.000001
vn -0.831470 0.000000 -0.555570
vn -0.382684 0.000000 0.923879
vn 0.831469 0.000000 0.555571
vn 0.707108 0.000000 -0.707106
vn -0.980786 -0.000001 0.195089
vn 0.382682 -0.000003 0.923880
vn 0.980785 0.000001 -0.195090
vn 0.000001 0.000004 -1.000000
vn -0.555570 0.000001 0.831470
vn 0.923880 0.000001 0.382683
vn 0.555571 -0.000003 -0.831469
vn -0.707108 -0.000003 -0.707106
vn -0.195091 0.000000 -0.980785
vn 0.831470 0.000000 0.555570
vn 0.382682 0.000000 -0.923880
vn -0.707108 0.000000 0.707105
vn 0.980786 -0.000001 -0.195089
vn -0.382684 -0.000003 -0.923879
vn -0.382684 -0.000003 -0.923879
vn -0.980785 0.000000 0.195091
vn 0.000000 0.000003 1.000000
vt 3.829733 -0.310560
vt 4.023656 -0.310560
vt 4.023656 1.007194
vt 3.829733 1.007194
vt 4.217580 -0.310560
vt 4.217580 1.007194
vt 4.411504 -0.310560
vt 4.411504 1.007194
vt 1.308728 -0.310560
vt 1.502651 -0.310560
vt 1.502651 1.007194
vt 1.308728 1.007194
vt 1.696574 -0.310560
vt 1.696574 1.007194
vt 1.890498 -0.310560
vt 1.890498 1.007194
vt 2.084421 -0.310560
vt 2.084421 1.007194
vt 2.278345 -0.310560
vt 2.278345 1.007194
vt 2.472269 -0.310560
vt 2.472269 1.007194
vt 2.666192 -0.310560
vt 2.666192 1.007194
vt 2.860116 -0.310560
vt 2.860116 1.007194
vt 3.054039 -0.310560
vt 3.054039 1.007194
vt 3.247962 -0.310560
vt 3.247962 1.007194
vt 3.441886 -0.310560
vt 3.441886 1.007194
vt 3.635810 -0.310560
vt 3.635810 1.007194
vt 0.644356 0.903544
vt 0.610485 0.954235
vt 0.500000 0.837500
vt 0.559794 0.988106
vt 0.500000 1.000000
vt 0.440206 0.988106
vt 0.389515 0.954235
vt 0.355644 0.903544
vt 0.343750 0.843750
vt 0.355644 0.783956
vt 0.389515 0.733265
vt 0.440206 0.699394
vt 0.500000 0.687500
vt 0.559794 0.699394
vt 0.610485 0.733265
vt 0.644356 0.783956
vt 0.656250 0.843750
vt 0.886067 1.745540
vt 0.795482 1.609972
vt 0.852144 1.553309
vt 0.960099 1.714875
vt 0.659914 1.519388
vt 0.690580 1.445354
vt 0.500000 1.487579
vt 0.500000 1.407446
vt 0.340086 1.519388
vt 0.309421 1.445354
vt 0.204517 1.609971
vt 0.147855 1.553309
vt 0.113934 1.745540
vt 0.039901 1.714875
vt 0.082124 1.905453
vt 0.001992 1.905453
vt 0.113934 2.065368
vt 0.039901 2.096033
vt 0.204517 2.200936
vt 0.147855 2.257599
vt 0.340086 2.291520
vt 0.309421 2.365553
vt 0.500000 2.323329
vt 0.500000 2.403462
vt 0.659914 2.291521
vt 0.690580 2.365553
vt 0.795482 2.200936
vt 0.852144 2.257599
vt 0.886067 2.065368
vt 0.960099 2.096033
vt 0.917875 1.905453
vt 0.998007 1.905453
vt 4.023657 1.007194
vt 4.023657 1.218076
vt 3.829733 1.218076
vt 4.217580 1.218076
vt 4.411504 1.218076
vt 1.308727 1.007194
vt 1.502651 1.218076
vt 1.308727 1.218076
vt 1.696574 1.218076
vt 1.890498 1.218076
vt 2.084421 1.218076
vt 2.278345 1.218076
vt 2.472269 1.218076
vt 2.666192 1.218076
vt 2.860116 1.218076
vt 3.054039 1.218076
vt 3.247963 1.007194
vt 3.247963 1.218076
vt 3.441887 1.007194
vt 3.441887 1.218076
vt 3.635810 1.218076
vt 0.215588 0.056096
vt 0.101925 0.226204
vt 0.001954 0.126233
vt 0.084969 0.001992
vt 0.322021 0.001992
vt 0.435685 0.172098
vt 0.305064 0.226204
vt 0.222050 0.101963
vt 0.132575 0.458248
vt 0.172487 0.658905
vt 0.031106 0.658905
vt 0.001954 0.512354
vt 0.350514 0.458248
vt 0.310602 0.658903
vt 0.179982 0.604799
vt 0.209134 0.458248
vt 0.655590 0.056096
vt 0.541926 0.226204
vt 0.441955 0.126233
vt 0.524969 0.001992
vt 0.775522 0.226204
vt 0.661859 0.056096
vt 0.792479 0.001992
vt 0.875494 0.126233
vt 0.397730 0.658903
vt 0.357817 0.458248
vt 0.499199 0.458248
vt 0.528350 0.604799
vt 0.535653 0.658903
vt 0.575566 0.458248
vt 0.706186 0.512352
vt 0.677035 0.658903
vt 0.765560 0.400228
vt 0.879222 0.230120
vt 0.979194 0.330091
vt 0.896179 0.454332
vt 0.659569 0.454332
vt 0.545907 0.284224
vt 0.676525 0.230120
vt 0.759540 0.354361
vt 0.753403 0.658903
vt 0.713489 0.458248
vt 0.854872 0.458248
vt 0.884021 0.604799
vt 0.808663 0.863476
vt 0.848574 0.662819
vt 0.979195 0.716925
vt 0.950045 0.863476
vt 0.326252 0.400226
vt 0.439916 0.230120
vt 0.539887 0.330093
vt 0.456873 0.454332
vt 0.206571 0.230120
vt 0.320234 0.400228
vt 0.189614 0.454332
vt 0.106599 0.330091
vt 0.762730 0.662819
vt 0.802643 0.863474
vt 0.661262 0.863474
vt 0.632111 0.716923
vt 0.626092 0.662819
vt 0.586179 0.863474
vt 0.455559 0.809370
vt 0.484711 0.662819
vt 4.023657 0.949146
vt 3.829734 0.949146
vt 4.217580 0.949146
vt 4.411504 0.949146
vt 1.502651 0.949146
vt 1.308727 0.949146
vt 1.696575 1.218076
vt 1.696575 0.949146
vt 1.890497 0.949146
vt 2.084421 0.949146
vt 2.278345 0.949146
vt 2.472268 0.949146
vt 2.666192 0.949146
vt 2.860116 0.949146
vt 3.054039 0.949146
vt 3.247963 0.949146
vt 3.441886 1.218076
vt 3.441886 0.949146
vt 3.635810 0.949146
vt 4.217580 1.310560
vt 4.023657 1.310560
vt 0.067801 0.793440
vt 0.067801 0.662821
vt 0.139334 0.662821
vt 0.139334 0.793440
vt 0.550951 0.967361
vt 0.550951 0.867390
vt 0.622483 0.867390
vt 0.622483 0.967361
vt 1.502651 1.310560
vt 1.308727 1.310560
vt 0.001954 0.927975
vt 0.001954 0.797356
vt 0.073487 0.797356
vt 0.073487 0.927975
vt 0.378009 0.804199
vt 0.378009 0.662819
vt 0.449542 0.662819
vt 0.449542 0.804199
vt 1.890498 1.310560
vt 1.696574 1.310560
vt 0.080547 0.938737
vt 0.080547 0.808118
vt 0.152079 0.808118
vt 0.152079 0.938737
vt 1.696575 1.310560
vt 0.629352 0.967361
vt 0.629352 0.867390
vt 0.700884 0.867390
vt 0.700884 0.967361
vt 2.278345 1.310560
vt 2.084421 1.310560
vt 0.158948 0.938737
vt 0.158948 0.808118
vt 0.230480 0.808118
vt 0.230480 0.938737
vt 2.084422 1.310560
vt 0.371989 0.662821
vt 0.371989 0.804199
vt 0.300457 0.804199
vt 0.300457 0.662821
vt 2.666192 1.310560
vt 2.472269 1.310560
vt 0.237349 0.938735
vt 0.237349 0.808117
vt 0.308881 0.808117
vt 0.308881 0.938735
vt 2.472268 1.310560
vt 0.707753 0.967362
vt 0.707753 0.867390
vt 0.779285 0.867391
vt 0.779285 0.967362
vt 3.054039 1.310560
vt 2.860116 1.310560
vt 0.315748 0.938737
vt 0.315748 0.808117
vt 0.387281 0.808117
vt 0.387281 0.938737
vt 0.222904 0.804201
vt 0.222904 0.662819
vt 0.294436 0.662819
vt 0.294436 0.804201
vt 3.441887 1.310560
vt 3.247963 1.310560
vt 0.465681 0.867394
vt 0.465681 0.998010
vt 0.394149 0.998010
vt 0.394149 0.867394
vt 3.441886 1.310560
vt 0.786153 0.967363
vt 0.786153 0.867392
vt 0.857685 0.867392
vt 0.857685 0.967363
vt 3.829733 1.310560
vt 3.635810 1.310560
vt 0.544082 0.867394
vt 0.544082 0.998010
vt 0.472550 0.998010
vt 0.472550 0.867394
vt 3.829734 1.310560
vt 0.145353 0.804202
vt 0.145353 0.662821
vt 0.216885 0.662821
vt 0.216885 0.804202
f 1/1/1 2/2/2 3/3/2 4/4/1
f 2/2/2 5/5/3 6/6/3 3/3/2
f 5/5/3 7/7/4 8/8/4 6/6/3
f 7/9/4 9/10/5 10/11/5 8/12/4
f 9/10/5 11/13/6 12/14/6 10/11/5
f 11/13/6 13/15/7 14/16/7 12/14/6
f 13/15/7 15/17/8 16/18/8 14/16/7
f 15/17/8 17/19/9 18/20/9 16/18/8
f 17/19/9 19/21/10 20/22/10 18/20/9
f 19/21/10 21/23/11 22/24/11 20/22/10
f 21/23/11 23/25/12 24/26/12 22/24/11
f 23/25/12 25/27/13 26/28/13 24/26/12
f 25/27/13 27/29/14 28/30/14 26/28/13
f 27/29/14 29/31/15 30/32/15 28/30/14
f 29/31/15 31/33/16 32/34/16 30/32/15
f 31/33/16 1/1/1 4/4/1 32/34/16
f 33/35/17 34/36/17 35/37/17
f 34/36/17 36/38/17 35/37/17
f 36/38/17 37/39/17 35/37/17
f 37/39/17 38/40/17 35/37/17
f 38/40/17 39/41/17 35/37/17
f 39/41/17 40/42/17 35/37/17
f 40/42/17 41/43/17 35/37/17
f 41/43/17 42/44/17 35/37/17
f 42/44/17 43/45/17 35/37/17
f 43/45/17 44/46/17 35/37/17
f 44/46/17 45/47/17 35/37/17
f 45/47/17 46/48/17 35/37/17
f 46/48/17 47/49/17 35/37/17
f 47/49/17 48/50/17 35/37/17
f 48/50/17 49/51/17 35/37/17
f 49/51/17 33/35/17 35/37/17
f 4/52/18 3/53/18 50/54/18 51/55/18
f 3/53/18 6/56/18 52/57/18 50/54/18
f 6/56/18 8/58/18 53/59/18 52/57/18
f 8/58/18 10/60/18 54/61/18 53/59/18
f 10/60/18 12/62/18 55/63/18 54/61/18
f 12/62/18 14/64/18 56/65/18 55/63/18
f 14/64/18 16/66/18 57/67/18 56/65/18
f 16/66/18 18/68/18 58/69/18 57/67/18
f 18/68/18 20/70/18 59/71/18 58/69/18
f 20/70/18 22/72/18 60/73/18 59/71/18
f 22/72/18 24/74/18 61/75/18 60/73/18
f 24/74/18 26/76/18 62/77/18 61/75/18
f 26/76/18 28/78/18 63/79/18 62/77/18
f 28/78/18 30/80/18 64/81/18 63/79/18
f 30/80/18 32/82/18 65/83/18 64/81/18
f 32/82/18 4/52/18 51/55/18 65/83/18
f 51/4/19 50/84/20 66/85/21 67/86/22
f 50/84/20 52/6/23 68/87/24 66/85/21
f 52/6/23 53/8/25 69/88/26 68/87/24
f 53/89/25 54/11/27 70/90/28 69/91/26
f 54/11/27 55/14/6 71/92/29 70/90/28
f 55/14/6 56/16/7 72/93/30 71/92/29
f 56/16/7 57/18/31 73/94/32 72/93/30
f 57/18/31 58/20/33 74/95/34 73/94/32
f 58/20/33 59/22/10 75/96/35 74/95/34
f 59/22/10 60/24/36 76/97/37 75/96/35
f 60/24/36 61/26/12 77/98/38 76/97/37
f 61/26/12 62/28/39 78/99/40 77/98/38
f 62/28/39 63/100/41 79/101/42 78/99/40
f 63/100/41 64/102/15 80/103/43 79/101/42
f 64/102/15 65/34/16 81/104/44 80/103/43
f 65/34/16 51/4/19 67/86/22 81/104/44
f 67/105/17 66/106/17 82/107/17 83/108/17
f 84/109/17 85/110/17 86/111/17 87/112/17
f 68/113/17 69/114/17 88/115/17 89/116/17
f 90/117/17 91/118/17 92/119/17 93/120/17
f 70/121/17 71/122/17 94/123/17 95/124/17
f 96/125/17 97/126/17 98/127/17 99/128/17
f 72/129/17 73/130/17 100/131/17 101/132/17
f 102/133/17 103/134/17 104/135/17 105/136/17
f 74/137/17 75/138/17 106/139/17 107/140/17
f 108/141/17 109/142/17 110/143/17 111/144/17
f 76/145/17 77/146/17 112/147/17 113/148/17
f 114/149/17 115/150/17 116/151/17 117/152/17
f 78/153/17 79/154/17 118/155/17 119/156/17
f 120/157/17 121/158/17 122/159/17 123/160/17
f 80/161/17 81/162/17 124/163/17 125/164/17
f 126/165/17 127/166/17 128/167/17 129/168/17
f 83/86/45 82/85/46 34/169/47 33/170/48
f 82/85/46 89/87/49 36/171/50 34/169/47
f 89/87/49 88/88/51 37/172/52 36/171/50
f 88/91/51 95/90/53 38/173/39 37/174/52
f 95/90/53 94/175/54 39/176/55 38/173/39
f 94/175/54 101/93/56 40/177/57 39/176/55
f 101/93/56 100/94/58 41/178/16 40/177/57
f 100/94/58 107/95/59 42/179/19 41/178/16
f 107/95/59 106/96/60 43/180/20 42/179/19
f 106/96/60 113/97/61 44/181/62 43/180/20
f 113/97/61 112/98/63 45/182/25 44/181/62
f 112/98/63 119/99/64 46/183/65 45/182/25
f 119/99/64 118/101/66 47/184/6 46/183/65
f 118/101/66 125/185/67 48/186/68 47/184/6
f 125/185/67 124/104/69 49/187/8 48/186/68
f 124/104/69 83/86/45 33/170/48 49/187/8
f 66/85/21 68/87/24 85/188/70 84/189/70
f 68/190/7 89/191/7 86/192/7 85/193/7
f 89/87/49 82/85/46 87/189/71 86/188/71
f 82/194/72 66/195/72 84/196/72 87/197/72
f 69/91/26 70/90/28 91/198/73 90/199/73
f 70/200/9 95/201/9 92/202/9 91/203/9
f 95/90/53 88/91/51 93/199/74 92/198/74
f 88/204/75 69/205/75 90/206/75 93/207/75
f 71/92/29 72/93/30 97/208/76 96/209/76
f 72/210/77 101/211/77 98/212/77 97/213/77
f 101/93/56 94/175/54 99/214/78 98/208/78
f 94/215/79 71/216/79 96/217/79 99/218/79
f 73/94/32 74/95/34 103/219/80 102/220/80
f 74/221/81 107/222/81 104/223/81 103/224/81
f 107/95/59 100/94/58 105/225/82 104/219/82
f 100/226/83 73/227/83 102/228/83 105/229/83
f 75/96/35 76/97/37 109/230/84 108/231/84
f 76/232/85 113/233/85 110/234/85 109/235/85
f 113/97/61 106/96/60 111/236/86 110/230/86
f 106/237/87 75/238/87 108/239/87 111/240/87
f 77/98/38 78/99/40 115/241/74 114/242/74
f 78/243/19 119/244/19 116/245/19 115/246/19
f 119/99/64 112/98/63 117/242/88 116/241/88
f 112/247/8 77/248/8 114/249/8 117/250/8
f 79/101/42 80/103/43 121/251/89 120/252/89
f 80/253/90 125/254/90 122/255/90 121/256/90
f 125/185/67 118/101/66 123/252/76 122/257/76
f 118/258/91 79/259/91 120/260/91 123/261/91
f 81/104/44 67/86/22 127/262/92 126/263/92
f 67/264/93 83/265/93 128/266/94 127/267/93
f 83/86/45 124/104/69 129/263/95 128/268/95
f 124/269/96 81/270/96 126/271/96 129/272/96
