# This file uses centimeters as units for non-parametric coordinates.

mtllib SignBoard.mtl
g default
v 0.007979 0.139986 0.264475
v 0.060874 0.139986 0.264475
v 0.007979 0.457356 0.264475
v 0.060874 0.457356 0.264475
v 0.007979 0.457356 -0.264475
v 0.060874 0.457356 -0.264475
v 0.007979 0.139986 -0.264475
v 0.060874 0.139986 -0.264475
v 0.007979 0.298671 0.393727
v 0.060874 0.298671 0.393727
v 0.060874 0.298671 0.264475
v 0.007979 0.298671 0.264475
v 0.007979 0.298671 -0.264475
v 0.060874 0.298671 -0.264475
vt 0.143665 0.029601
vt 0.666636 0.029675
vt 0.666562 0.552646
vt 0.143591 0.552572
vt 0.015838 0.291069
vt 0.138800 0.738026
vt 0.138800 0.635068
vt 0.190279 0.609909
vt 0.241758 0.635068
vt 0.241758 0.738026
vt 0.129136 0.842198
vt 0.129136 0.739241
vt 0.232094 0.739241
vt 0.232094 0.842198
vt 0.138800 0.843413
vt 0.241758 0.843413
vt 0.241758 0.946371
vt 0.138800 0.946371
vt 0.233961 0.790720
vt 0.336919 0.790720
vt 0.336919 0.842198
vt 0.233961 0.842198
vt 0.233961 0.739241
vt 0.336919 0.739241
vt 0.033735 0.843413
vt 0.136692 0.843413
vt 0.136692 0.946371
vt 0.033735 0.946371
vt 0.143628 0.291087
vt 0.190279 0.635068
vt 0.190279 0.738026
vt 0.033735 0.894892
vt 0.136692 0.894892
vt 0.666599 0.291160
vn 0.000000 0.000000 1.000000
vn 0.000000 0.000000 1.000000
vn 0.000000 0.631533 0.775349
vn 0.000000 0.631533 0.775349
vn 0.000000 1.000000 -0.000000
vn 0.000000 1.000000 -0.000000
vn 0.000000 1.000000 -0.000000
vn 0.000000 1.000000 -0.000000
vn 0.000000 0.000000 -1.000000
vn 0.000000 0.000000 -1.000000
vn 0.000000 0.000000 -1.000000
vn 0.000000 0.000000 -1.000000
vn 0.000000 -1.000000 -0.000000
vn 0.000000 -1.000000 -0.000000
vn 0.000000 -1.000000 -0.000000
vn 0.000000 -1.000000 -0.000000
vn 1.000000 0.000000 0.000000
vn 1.000000 0.000000 0.000000
vn 1.000000 0.000000 0.000000
vn -1.000000 0.000000 0.000000
vn -1.000000 0.000000 0.000000
vn -1.000000 0.000000 0.000000
vn 0.000000 -0.631533 0.775349
vn 0.000000 -0.631533 0.775349
vn -1.000000 0.000000 0.000000
vn -1.000000 0.000000 0.000000
vn 1.000000 0.000000 0.000000
vn 1.000000 0.000000 0.000000
vn 1.000000 0.000000 0.000000
vn -1.000000 0.000000 0.000000
vn -1.000000 0.000000 0.000000
vn 0.000000 0.000000 -1.000000
vn 0.000000 0.000000 -1.000000
vn 1.000000 0.000000 0.000000
s 1
g pCube1
usemtl texturedFacets2
f 9/19/1 10/20/2 4/21/3 3/22/4
s off
usemtl lambert2SG
f 3/11/5 4/12/6 6/13/7 5/14/8
s 2
usemtl texturedFacets2
f 13/32/9 14/33/10 8/27/11 7/28/12
s off
usemtl lambert2SG
f 7/15/13 8/16/14 2/17/15 1/18/16
s 3
f 10/5/17 11/29/18 4/4/19
s 4
f 9/8/20 12/30/21 1/7/22
s 1
usemtl texturedFacets2
f 1/23/23 2/24/24 10/20/2 9/19/1
s 4
usemtl lambert2SG
f 7/6/25 1/7/22 12/30/21 13/31/26
s 3
f 2/1/27 8/2/28 14/34/29 11/29/18
f 2/1/27 11/29/18 10/5/17
s 4
f 3/9/30 12/30/21 9/8/20
f 13/31/26 12/30/21 3/9/30 5/10/31
s 2
usemtl texturedFacets2
f 5/25/32 6/26/33 14/33/10 13/32/9
s 3
usemtl lambert2SG
f 11/29/18 14/34/29 6/3/34 4/4/19
g default
v 0.008522 -0.531508 -0.008173
v 0.004766 -0.531508 -0.015545
v -0.001086 -0.531508 -0.021397
v -0.008458 -0.531508 -0.025153
v -0.016631 -0.531508 -0.026448
v -0.024804 -0.531508 -0.025153
v -0.032176 -0.531508 -0.021397
v -0.038028 -0.531508 -0.015545
v -0.041784 -0.531508 -0.008173
v -0.043079 -0.531508 0.000000
v -0.041784 -0.531508 0.008173
v -0.038028 -0.531508 0.015545
v -0.032176 -0.531508 0.021397
v -0.024804 -0.531508 0.025153
v -0.016631 -0.531508 0.026448
v -0.008458 -0.531508 0.025153
v -0.001086 -0.531508 0.021397
v 0.004765 -0.531508 0.015545
v 0.008522 -0.531508 0.008173
v 0.009817 -0.531508 0.000000
v 0.008522 0.526394 -0.008173
v 0.004766 0.526394 -0.015545
v -0.001086 0.526394 -0.021397
v -0.008458 0.526394 -0.025153
v -0.016631 0.526394 -0.026448
v -0.024804 0.526394 -0.025153
v -0.032176 0.526394 -0.021397
v -0.038028 0.526394 -0.015545
v -0.041784 0.526394 -0.008173
v -0.043079 0.526394 0.000000
v -0.041784 0.526394 0.008173
v -0.038028 0.526394 0.015545
v -0.032176 0.526394 0.021397
v -0.024804 0.526394 0.025153
v -0.016631 0.526394 0.026448
v -0.008458 0.526394 0.025153
v -0.001086 0.526394 0.021397
v 0.004765 0.526394 0.015545
v 0.008522 0.526394 0.008173
v 0.009817 0.526394 0.000000
v -0.016631 -0.531508 0.000000
v -0.016631 0.526394 0.000000
vt 0.989708 0.356602
vt 0.967515 0.242105
vt 0.932947 0.151240
vt 0.889390 0.092901
vt 0.841106 0.072798
vt 0.792822 0.092901
vt 0.749264 0.151240
vt 0.714697 0.242105
vt 0.692503 0.356602
vt 0.684856 0.483523
vt 0.692503 0.610443
vt 0.714697 0.724940
vt 0.749264 0.815806
vt 0.792822 0.874145
vt 0.841106 0.894247
vt 0.889390 0.874145
vt 0.932947 0.815806
vt 0.967515 0.724940
vt 0.989708 0.610444
vt 0.997356 0.483523
vt 0.716106 0.007131
vt 0.728606 0.007131
vt 0.741106 0.007131
vt 0.753606 0.007131
vt 0.766106 0.007131
vt 0.778606 0.007131
vt 0.791106 0.007131
vt 0.803606 0.007131
vt 0.816105 0.007131
vt 0.828606 0.007131
vt 0.841105 0.007131
vt 0.853606 0.007131
vt 0.866105 0.007131
vt 0.878605 0.007131
vt 0.891105 0.007131
vt 0.903605 0.007131
vt 0.916105 0.007131
vt 0.928605 0.007131
vt 0.941105 0.007131
vt 0.953605 0.007131
vt 0.966105 0.007131
vt 0.716106 0.995340
vt 0.728606 0.995340
vt 0.741106 0.995340
vt 0.753606 0.995340
vt 0.766106 0.995340
vt 0.778606 0.995340
vt 0.791106 0.995340
vt 0.803606 0.995340
vt 0.816105 0.995340
vt 0.828606 0.995340
vt 0.841105 0.995340
vt 0.853606 0.995340
vt 0.866105 0.995340
vt 0.878605 0.995340
vt 0.891105 0.995340
vt 0.903605 0.995340
vt 0.916105 0.995340
vt 0.928605 0.995340
vt 0.941105 0.995340
vt 0.953605 0.995340
vt 0.966105 0.995340
vt 0.989708 0.349686
vt 0.967515 0.235189
vt 0.932947 0.144324
vt 0.889390 0.085985
vt 0.841106 0.065883
vt 0.792822 0.085985
vt 0.749264 0.144324
vt 0.714697 0.235189
vt 0.692503 0.349686
vt 0.684856 0.476607
vt 0.692503 0.603528
vt 0.714697 0.718025
vt 0.749264 0.808890
vt 0.792822 0.867229
vt 0.841106 0.887331
vt 0.889390 0.867229
vt 0.932947 0.808890
vt 0.967515 0.718025
vt 0.989708 0.603528
vt 0.997356 0.476607
vt 0.841106 0.467094
vt 0.841106 0.460178
vn 0.951057 0.000000 -0.309016
vn 0.809017 0.000000 -0.587785
vn 0.809017 0.000000 -0.587785
vn 0.951057 0.000000 -0.309016
vn 0.587785 0.000000 -0.809017
vn 0.587785 0.000000 -0.809017
vn 0.309017 0.000000 -0.951057
vn 0.309017 0.000000 -0.951057
vn -0.000000 0.000000 -1.000000
vn -0.000000 0.000000 -1.000000
vn -0.309017 0.000000 -0.951056
vn -0.309017 0.000000 -0.951056
vn -0.587785 0.000000 -0.809017
vn -0.587785 0.000000 -0.809017
vn -0.809017 0.000000 -0.587785
vn -0.809017 0.000000 -0.587785
vn -0.951057 0.000000 -0.309017
vn -0.951057 0.000000 -0.309017
vn -1.000000 0.000000 0.000000
vn -1.000000 0.000000 0.000000
vn -0.951056 0.000000 0.309017
vn -0.951056 0.000000 0.309017
vn -0.809017 0.000000 0.587785
vn -0.809017 0.000000 0.587785
vn -0.587785 0.000000 0.809017
vn -0.587785 0.000000 0.809017
vn -0.309017 0.000000 0.951057
vn -0.309017 0.000000 0.951057
vn 0.000000 0.000000 1.000000
vn 0.000000 0.000000 1.000000
vn 0.309017 0.000000 0.951056
vn 0.309017 0.000000 0.951056
vn 0.587785 0.000000 0.809017
vn 0.587785 0.000000 0.809017
vn 0.809017 0.000000 0.587785
vn 0.809017 0.000000 0.587785
vn 0.951057 0.000000 0.309017
vn 0.951057 0.000000 0.309017
vn 1.000000 0.000000 0.000001
vn 1.000000 0.000000 0.000001
vn 0.000000 -1.000000 0.000000
vn 0.000000 -1.000000 0.000000
vn 0.000000 -1.000000 0.000000
vn 0.000000 -1.000000 0.000000
vn 0.000000 -1.000000 0.000000
vn 0.000000 -1.000000 0.000000
vn 0.000000 -1.000000 0.000000
vn 0.000000 -1.000000 0.000000
vn 0.000000 -1.000000 0.000000
vn 0.000000 -1.000000 0.000000
vn 0.000000 -1.000000 0.000000
vn 0.000000 -1.000000 0.000000
vn 0.000000 -1.000000 0.000000
vn 0.000000 -1.000000 0.000000
vn 0.000000 -1.000000 0.000000
vn 0.000000 -1.000000 0.000000
vn 0.000000 -1.000000 0.000000
vn 0.000000 -1.000000 0.000000
vn 0.000000 -1.000000 0.000000
vn 0.000000 -1.000000 0.000000
vn 0.000000 -1.000000 0.000000
vn 0.000000 1.000000 0.000000
vn 0.000000 1.000000 0.000000
vn 0.000000 1.000000 0.000000
vn 0.000000 1.000000 0.000000
vn 0.000000 1.000000 0.000000
vn 0.000000 1.000000 0.000000
vn 0.000000 1.000000 0.000000
vn 0.000000 1.000000 0.000000
vn 0.000000 1.000000 0.000000
vn 0.000000 1.000000 0.000000
vn 0.000000 1.000000 0.000000
vn 0.000000 1.000000 0.000000
vn 0.000000 1.000000 0.000000
vn 0.000000 1.000000 0.000000
vn 0.000000 1.000000 0.000000
vn 0.000000 1.000000 0.000000
vn 0.000000 1.000000 0.000000
vn 0.000000 1.000000 0.000000
vn 0.000000 1.000000 0.000000
vn 0.000000 1.000000 0.000000
vn 0.000000 1.000000 0.000000
s 1
g pCube1 pCylinder1
usemtl lambert2SG
f 15/55/35 16/56/36 36/77/37 35/76/38
f 16/56/36 17/57/39 37/78/40 36/77/37
f 17/57/39 18/58/41 38/79/42 37/78/40
f 18/58/41 19/59/43 39/80/44 38/79/42
f 19/59/43 20/60/45 40/81/46 39/80/44
f 20/60/45 21/61/47 41/82/48 40/81/46
f 21/61/47 22/62/49 42/83/50 41/82/48
f 22/62/49 23/63/51 43/84/52 42/83/50
f 23/63/51 24/64/53 44/85/54 43/84/52
f 24/64/53 25/65/55 45/86/56 44/85/54
f 25/65/55 26/66/57 46/87/58 45/86/56
f 26/66/57 27/67/59 47/88/60 46/87/58
f 27/67/59 28/68/61 48/89/62 47/88/60
f 28/68/61 29/69/63 49/90/64 48/89/62
f 29/69/63 30/70/65 50/91/66 49/90/64
f 30/70/65 31/71/67 51/92/68 50/91/66
f 31/71/67 32/72/69 52/93/70 51/92/68
f 32/72/69 33/73/71 53/94/72 52/93/70
f 33/73/71 34/74/73 54/95/74 53/94/72
f 34/74/73 15/75/35 35/96/38 54/95/74
s 2
f 16/36/75 15/35/76 55/117/77
f 17/37/78 16/36/75 55/117/77
f 18/38/79 17/37/78 55/117/77
f 19/39/80 18/38/79 55/117/77
f 20/40/81 19/39/80 55/117/77
f 21/41/82 20/40/81 55/117/77
f 22/42/83 21/41/82 55/117/77
f 23/43/84 22/42/83 55/117/77
f 24/44/85 23/43/84 55/117/77
f 25/45/86 24/44/85 55/117/77
f 26/46/87 25/45/86 55/117/77
f 27/47/88 26/46/87 55/117/77
f 28/48/89 27/47/88 55/117/77
f 29/49/90 28/48/89 55/117/77
f 30/50/91 29/49/90 55/117/77
f 31/51/92 30/50/91 55/117/77
f 32/52/93 31/51/92 55/117/77
f 33/53/94 32/52/93 55/117/77
f 34/54/95 33/53/94 55/117/77
f 15/35/76 34/54/95 55/117/77
s 3
f 35/115/96 36/114/97 56/118/98
f 36/114/97 37/113/99 56/118/98
f 37/113/99 38/112/100 56/118/98
f 38/112/100 39/111/101 56/118/98
f 39/111/101 40/110/102 56/118/98
f 40/110/102 41/109/103 56/118/98
f 41/109/103 42/108/104 56/118/98
f 42/108/104 43/107/105 56/118/98
f 43/107/105 44/106/106 56/118/98
f 44/106/106 45/105/107 56/118/98
f 45/105/107 46/104/108 56/118/98
f 46/104/108 47/103/109 56/118/98
f 47/103/109 48/102/110 56/118/98
f 48/102/110 49/101/111 56/118/98
f 49/101/111 50/100/112 56/118/98
f 50/100/112 51/99/113 56/118/98
f 51/99/113 52/98/114 56/118/98
f 52/98/114 53/97/115 56/118/98
f 53/97/115 54/116/116 56/118/98
f 54/116/116 35/115/96 56/118/98
