#
#
#

mtllib StraightWall1.mtl


#
# initialShadingGroup initialShadingGroup1 polySurface831 polySurface1 Mesh
#
g initialShadingGroup initialShadingGroup1 polySurface831 polySurface1 Mesh

v -0.526933 -0.389810 -0.354332
v -0.518494 -0.396084 -0.118910
v -0.501198 -0.379342 -0.354332
v -0.463023 -0.314361 -0.354329
v -0.484859 -0.316904 0.287667
v -0.517001 -0.345267 0.356604
v -0.491897 -0.317547 0.356604
v -0.525775 -0.387977 0.356604
v -0.529869 -0.394184 0.356604
v -0.529869 -0.407096 0.035929
v -0.529869 -0.391005 -0.354332
v 0.157657 -0.113879 0.131705
v 0.159846 -0.177687 -0.354325
v 0.137742 -0.113879 -0.043535
v 0.137742 -0.153125 -0.354325
v 0.102423 -0.113879 -0.354325
v 0.206348 -0.287902 -0.354325
v 0.230977 -0.260531 0.356612
v 0.169101 -0.113879 0.356612
v 0.267371 -0.359679 -0.354325
v 0.265307 -0.300912 0.356612
v 0.360279 -0.420631 -0.354325
v 0.301896 -0.400289 -0.354325
v 0.360279 -0.428756 0.153001
v 0.360279 -0.412048 0.356612
v 0.360279 -0.413022 0.351536
v 0.359740 -0.411986 0.356612
v -0.307332 -0.368186 0.356610
v -0.313646 -0.368452 0.356610
v -0.307332 -0.500700 0.356610
v -0.318470 -0.373056 0.356610
v -0.529869 -0.500700 0.356604
v -0.335404 -0.368978 0.356610
v -0.430002 -0.312667 0.356607
v -0.307332 -0.500700 -0.354327
v -0.529869 -0.500700 -0.354332
v -0.307332 -0.371426 -0.354327
v -0.322535 -0.366622 -0.354327
v -0.356961 -0.361987 -0.354327
v -0.440016 -0.312547 -0.354329
v 0.137742 -0.500700 -0.354325
v 0.360279 -0.500700 -0.354325
v 0.137742 -0.113879 0.356612
v 0.137742 -0.500700 0.356612
v 0.360279 -0.500700 0.356612
v -0.232784 -0.394980 -0.354327
v -0.084795 -0.500700 -0.354325
v -0.203046 -0.384358 -0.354327
v -0.124502 -0.356305 -0.354325
v -0.088723 -0.263423 -0.354325
v -0.084795 -0.266263 -0.354325
v -0.126837 -0.267670 0.356612
v -0.144029 -0.312301 0.356612
v -0.119601 -0.273047 0.356612
v -0.084795 -0.500700 0.356612
v -0.299582 -0.367860 0.356610
v -0.189954 -0.328703 0.356610
v -0.084795 -0.298213 0.356612
v -0.074682 -0.273575 -0.354325
v 0.000042 -0.243179 -0.354325
v 0.025775 -0.232711 -0.354325
v 0.095587 -0.113879 -0.354325
v -0.077016 -0.303837 0.356612
v -0.026456 -0.283270 0.356612
v 0.073061 -0.113879 0.356612
v 0.047819 -0.156845 0.356612
v 0.009972 -0.198634 0.356612
v 0.001198 -0.241345 0.356612
v -0.123314 -0.267376 0.290130
v -0.315073 -0.382074 0.235537
v 0.008480 -0.249452 -0.118910
vn -0.349469 0.936494 0.029179
vn -0.756409 0.654029 -0.009594
vn -0.658730 0.752379 0.000569
vn -0.841910 0.539170 -0.021975
vn -0.793482 0.607566 -0.035340
vn -0.913097 0.406602 -0.030476
vn -0.710561 0.701498 -0.054815
vn -0.918838 0.394283 -0.016670
vn -0.811789 0.583680 -0.017760
vn -0.637402 0.770526 0.002835
vn -0.349475 0.936491 0.029179
vn 0.840632 0.539259 -0.050380
vn 0.712273 0.698728 -0.066677
vn 0.835399 0.548202 -0.039789
vn 0.907857 0.417549 -0.038056
vn 0.732850 0.679174 -0.040674
vn 0.304432 0.952464 0.011527
vn 0.525405 0.850742 -0.013733
vn 0.103298 0.984342 -0.142830
vn 0.582239 0.809645 -0.073979
vn -0.000027 0.000000 1.000000
vn 0.000027 0.000000 -1.000000
vn -1.000000 0.000000 0.000000
vn 0.000000 0.000000 -1.000000
vn 0.000000 0.000000 1.000000
vn 0.000000 1.000000 0.000000
vn 1.000000 0.000000 0.000000
vn -0.724786 0.687262 -0.048545
vn -0.921316 0.386860 -0.038941
vn -0.310955 0.949032 -0.051425
vn -0.196803 0.978216 -0.066046
vn 0.058695 0.997946 -0.025679
vn 0.023979 0.999618 -0.013771
vn 0.202212 0.979189 0.017277
vn 0.278355 0.960343 0.016110
vn 0.316551 0.948557 0.005894
vn 0.221512 0.975155 -0.002446
vn 0.373700 0.927236 -0.024104
vn -0.072141 0.997394 0.000964
vn -0.245684 0.967483 -0.060132
vn -0.416880 0.906027 -0.072986
vn -0.038467 0.995699 -0.084285
vn -0.349474 0.936492 0.029179
vn -0.756409 0.654028 -0.009594
vn -0.658734 0.752376 0.000569
vn 0.127614 0.991300 0.032232
vn -0.637396 0.770531 0.002835
vn 0.552522 0.833018 0.028289
vn 0.557827 0.829491 0.027816
vn 0.563053 0.825968 0.027346
vn -0.918837 0.394285 -0.016670
vn -0.913098 0.406601 -0.030476
vn -0.793482 0.607567 -0.035340
vn -0.841909 0.539171 -0.021974
vt 0.496749 1.691060
vt 0.496749 1.715749
vt 0.531421 1.715749
vt 0.982604 1.609790
vt 0.982604 1.525499
vt 0.944494 1.748858
vt 0.919209 1.611263
vt 0.935776 1.523228
vt 0.917656 1.591271
vt 0.919209 1.611264
vt 0.496749 1.780909
vt 0.475589 1.747468
vt 0.468353 1.742772
vt 0.473945 1.715749
vt 0.492793 1.688243
vt 0.672879 1.515765
vt 0.672879 1.573832
vt 0.709864 1.513521
vt 0.712365 1.549084
vt 0.775455 1.509541
vt 0.598510 1.620758
vt 0.553999 1.563905
vt 0.652956 1.501467
vt 0.496749 1.681424
vt 0.598510 1.620757
vt 0.496750 1.598036
vt 0.352468 1.751849
vt 0.439175 1.715749
vt 0.339362 1.715749
vt 0.338513 1.692261
vt 0.338401 1.693035
vt 0.339276 1.691918
vt 0.252900 1.314941
vt 0.245878 1.315117
vt 0.252900 1.402369
vt 0.240514 1.318155
vt 0.005418 1.402369
vt 0.221682 1.315464
vt 0.005418 1.332094
vt 0.116479 1.278312
vt 0.009971 1.327998
vt 0.019728 1.299820
vt 0.047647 1.281531
vt 0.252900 1.317079
vt 0.235994 1.313910
vt 0.197709 1.310851
vt 0.005418 1.329996
vt 0.008684 1.329208
vt 0.037303 1.322302
vt 0.105343 1.278233
vt 0.079758 1.279429
vt 0.823168 1.211707
vt 0.823168 1.278159
vt 0.802653 1.221455
vt 0.785796 1.278159
vt 0.785796 1.213633
vt 0.747863 1.173052
vt 0.772444 1.189257
vt 0.747863 1.402369
vt 0.824159 1.261973
vt 0.892022 1.309329
vt 0.930417 1.336122
vt 0.995345 1.402369
vt 0.995345 1.349543
vt 0.747863 1.147158
vt 0.782737 1.147158
vt 0.851549 1.243914
vt 0.889728 1.270556
vt 0.994745 1.343839
vt 0.995345 1.343880
vt 0.344944 1.375495
vt 0.344944 1.399904
vt 0.317548 1.386185
vt 0.301805 1.399904
vt 0.823168 1.224455
vt 0.822901 1.225045
vt 0.812465 1.234576
vt 0.785796 1.229654
vt 0.335805 1.332619
vt 0.500381 1.402369
vt 0.368875 1.325611
vt 0.456224 1.307102
vt 0.496013 1.245822
vt 0.500381 1.247696
vt 0.453627 1.248624
vt 0.434508 1.278070
vt 0.461674 1.252172
vt 0.261519 1.314726
vt 0.383436 1.288892
vt 0.500381 1.268776
vt 0.511628 1.252520
vt 0.594727 1.232466
vt 0.623345 1.225560
vt 0.700983 1.147158
vt 0.708586 1.147158
vt 0.509032 1.272486
vt 0.565260 1.258916
vt 0.675932 1.147158
vt 0.647860 1.175506
vt 0.605771 1.203077
vt 0.596014 1.231256
vt 0.127786 1.399904
vt 0.038808 1.399904
vt 0.096798 1.356536
vt 0.087394 1.356536
vt 0.038808 1.375495
vt 0.384175 1.634568
vt 0.430928 1.574852
vt 0.339361 1.590050
vt 0.409394 1.553461
vt 0.402896 1.556931
vt 0.430928 1.574851
vt 0.384176 1.634568
vt 0.496749 1.609282
vt 0.496749 1.693455
vt 0.653873 1.691473
vt 0.672879 1.715749
vt 0.539370 1.715749
vt 0.943837 1.918656
vt 0.982604 1.953695
vt 0.950404 1.869613
vt 0.982604 1.629116
vt 0.723586 1.791761
vt 0.672879 1.769692
vt 0.849009 1.836556
vt 0.849010 1.766769
vt 0.706156 1.715749
vt 0.925307 1.805930
vt 0.915434 1.807629
vt 0.849010 1.836556
vt 0.877369 1.851112
vt 0.681068 1.705291
vt 0.672879 1.702693
vt 0.681068 1.705290
vt 0.664346 1.697655
vt 0.496750 1.691061
vt 0.531420 1.715749
vt 0.396074 1.619372
vt 0.358596 1.667242
vt 0.426716 1.715749
vt 0.383552 1.611162
vt 0.320618 1.635570
vt 0.387055 1.613459
vt 0.320619 1.642345
vt 0.351658 1.662693
vt 0.396074 1.619371
vt 0.387736 1.529604
vt 0.395070 1.518006
vt 0.395069 1.527252
vt 0.475589 1.747469
vt 0.496749 1.780910
vt 0.908458 1.625808
vt 0.935775 1.523228
vt 0.883260 1.717760
vt 0.912912 1.864103
vt 0.908458 1.625807
vt 0.982604 1.609787
f 1/1/1 2/2/2 3/3/3
f 3/4/3 2/5/2 4/6/4
f 4/6/4 2/5/2 5/7/5
f 6/8/6 7/9/7 2/5/2
f 7/9/7 5/10/5 2/5/2
f 6/11/6 2/2/2 8/12/8
f 9/13/9 8/12/8 10/14/10
f 10/14/10 8/12/8 2/2/2
f 10/14/10 2/2/2 11/15/11
f 11/15/11 2/2/2 1/1/1
f 12/16/12 13/17/12 14/18/13
f 13/17/12 15/19/13 14/18/13
f 15/19/13 16/20/13 14/18/13
f 17/21/14 13/17/12 18/22/14
f 13/17/12 12/16/12 18/22/14
f 18/22/14 12/16/12 19/23/15
f 20/24/16 17/25/14 21/26/16
f 21/26/16 17/25/14 18/22/14
f 22/27/17 23/28/18 24/29/18
f 25/30/19 26/31/20 27/32/20
f 21/26/16 27/32/20 20/24/16
f 20/24/16 27/32/20 23/28/18
f 27/32/20 26/31/20 23/28/18
f 26/31/20 24/29/18 23/28/18
f 28/33/21 29/34/21 30/35/21
f 29/34/21 31/36/21 30/35/21
f 30/35/21 31/36/21 32/37/21
f 31/36/21 33/38/21 32/37/21
f 32/37/21 33/38/21 9/39/21
f 33/38/21 34/40/21 9/39/21
f 9/39/21 34/40/21 8/41/21
f 8/41/21 34/40/21 6/42/21
f 34/40/21 7/43/21 6/42/21
f 35/35/22 36/37/22 37/44/22
f 37/44/22 36/37/22 38/45/22
f 38/45/22 36/37/22 39/46/22
f 36/37/22 11/47/22 39/46/22
f 11/47/22 1/48/22 39/46/22
f 1/48/22 3/49/22 39/46/22
f 39/46/22 3/49/22 40/50/22
f 3/49/22 4/51/22 40/50/22
f 11/52/23 36/53/23 10/54/23
f 36/53/23 32/55/23 10/54/23
f 10/54/23 32/55/23 9/56/23
f 15/57/24 13/58/24 41/59/24
f 13/58/24 17/60/24 41/59/24
f 17/60/24 20/61/24 41/59/24
f 20/61/24 23/62/24 41/59/24
f 42/63/24 41/59/24 22/64/24
f 23/62/24 22/64/24 41/59/24
f 43/65/25 44/59/25 19/66/25
f 19/66/25 44/59/25 18/67/25
f 18/67/25 44/59/25 21/68/25
f 21/68/25 44/59/25 27/69/25
f 45/63/25 25/70/25 44/59/25
f 44/59/25 25/70/25 27/69/25
f 14/71/26 43/72/26 12/73/26
f 12/73/26 43/72/26 19/74/26
f 25/75/27 45/53/27 26/76/27
f 45/53/27 42/55/27 26/76/27
f 26/76/27 42/55/27 24/77/27
f 24/77/27 42/55/27 22/78/27
f 37/44/24 46/79/24 35/35/24
f 35/35/24 46/79/24 47/80/24
f 46/79/24 48/81/24 47/80/24
f 48/81/24 49/82/24 47/80/24
f 50/83/24 51/84/24 49/82/24
f 51/84/24 47/80/24 49/82/24
f 52/85/25 53/86/25 54/87/25
f 30/35/25 55/80/25 28/33/25
f 28/33/25 55/80/25 56/88/25
f 56/88/25 55/80/25 57/89/25
f 57/89/25 55/80/25 53/86/25
f 54/87/25 53/86/25 58/90/25
f 53/86/25 55/80/25 58/90/25
f 51/84/24 59/91/24 47/80/24
f 47/80/24 59/91/24 41/59/24
f 59/91/24 60/92/24 41/59/24
f 60/92/24 61/93/24 41/59/24
f 41/59/24 61/93/24 15/57/24
f 61/93/24 62/94/24 15/57/24
f 62/94/24 16/95/24 15/57/24
f 58/90/25 55/80/25 63/96/25
f 55/80/25 44/59/25 63/96/25
f 63/96/25 44/59/25 64/97/25
f 43/65/25 65/98/25 44/59/25
f 65/98/25 66/99/25 44/59/25
f 66/99/25 67/100/25 44/59/25
f 67/100/25 68/101/25 44/59/25
f 44/59/25 68/101/25 64/97/25
f 65/102/26 43/103/26 62/104/26
f 62/104/26 43/103/26 16/105/26
f 43/103/26 14/106/26 16/105/26
f 49/107/28 53/108/28 50/109/29
f 52/110/29 69/111/29 53/108/28
f 69/111/29 50/109/29 53/108/28
f 53/112/28 49/113/28 57/114/30
f 57/114/30 49/113/28 48/115/30
f 57/114/30 48/115/30 56/116/31
f 56/116/31 48/115/30 70/117/32
f 48/115/30 46/118/33 70/117/32
f 38/119/34 70/120/32 37/121/35
f 70/120/32 46/122/33 37/121/35
f 39/123/36 70/117/32 38/124/34
f 40/125/37 34/126/37 39/123/36
f 33/127/38 70/117/32 34/126/37
f 70/117/32 39/123/36 34/126/37
f 7/128/39 34/126/37 5/129/39
f 34/126/37 40/130/37 5/129/39
f 5/129/39 40/130/37 4/131/39
f 31/132/40 70/117/32 33/127/38
f 29/133/41 70/117/32 31/134/40
f 56/116/31 70/117/32 28/135/42
f 70/117/32 29/133/41 28/135/42
f 60/136/43 71/2/44 61/137/45
f 59/138/46 63/139/46 60/136/43
f 60/136/43 63/139/46 71/2/44
f 63/139/46 64/140/47 71/2/44
f 50/141/48 69/142/49 51/143/48
f 54/144/49 58/145/48 69/142/49
f 63/139/46 59/146/46 58/145/48
f 59/146/46 51/143/48 58/145/48
f 51/143/48 69/142/49 58/145/48
f 52/147/50 54/148/49 69/149/49
f 68/150/51 71/2/44 64/140/47
f 67/151/52 71/2/44 68/150/51
f 66/152/53 71/5/44 67/153/52
f 65/154/54 62/155/54 66/156/53
f 61/157/45 71/5/44 62/155/54
f 71/5/44 66/156/53 62/155/54
