# This file uses centimeters as units for non-parametric coordinates.

mtllib StraightWall.mtl
g default1
v -0.479168 -0.387263 -0.461697
v -0.469969 -0.393537 -0.150160
v -0.451115 -0.376795 -0.461697
v -0.409501 -0.311814 -0.461693
v -0.433304 -0.314357 0.387870
v -0.440976 -0.315000 0.479096
v -0.468342 -0.342720 0.479096
v -0.477906 -0.385430 0.479096
v -0.482369 -0.391637 0.479096
v -0.482369 -0.404549 0.054741
v -0.482369 -0.388458 -0.461697
v 0.245380 -0.150578 -0.461688
v 0.206880 -0.111332 -0.461688
v 0.245380 -0.111332 -0.050414
v 0.267089 -0.111332 0.181483
v 0.269475 -0.175140 -0.461688
v 0.347014 -0.257984 0.479106
v 0.320166 -0.285355 -0.461688
v 0.279564 -0.111332 0.479106
v 0.384437 -0.298365 0.479106
v 0.386686 -0.357132 -0.461688
v 0.487964 -0.418084 -0.461688
v 0.424321 -0.397742 -0.461688
v 0.487964 -0.426209 0.209664
v 0.487964 -0.409501 0.479106
v 0.487964 -0.410475 0.472389
v 0.487376 -0.409439 0.479106
v -0.482369 -0.498153 -0.461697
v -0.239786 -0.498153 -0.461690
v -0.239786 -0.498153 0.479103
v -0.482369 -0.498153 0.479096
v -0.239786 -0.365639 0.479103
v -0.246669 -0.365905 0.479103
v -0.251927 -0.370509 0.479103
v -0.270386 -0.366431 0.479103
v -0.373506 -0.310120 0.479100
v -0.384422 -0.310000 -0.461693
v -0.293885 -0.359440 -0.461690
v -0.256358 -0.364075 -0.461690
v -0.239786 -0.368879 -0.461690
v 0.487964 -0.498153 0.479106
v 0.245380 -0.498153 0.479106
v 0.245380 -0.498153 -0.461688
v 0.487964 -0.498153 -0.461688
v 0.245380 -0.111332 0.479106
v 0.002797 -0.498153 0.479106
v 0.002797 -0.498153 -0.461688
v -0.001485 -0.260876 -0.461688
v 0.002797 -0.263716 -0.461688
v -0.158523 -0.392433 -0.461690
v -0.126106 -0.381811 -0.461690
v -0.040486 -0.353758 -0.461688
v -0.035144 -0.270500 0.479106
v -0.043032 -0.265123 0.479106
v -0.061773 -0.309754 0.479106
v -0.111834 -0.326156 0.479103
v -0.231338 -0.365313 0.479103
v 0.002797 -0.295666 0.479106
v 0.013821 -0.271028 -0.461688
v 0.095276 -0.240632 -0.461688
v 0.123327 -0.230164 -0.461688
v 0.199428 -0.111332 -0.461688
v 0.011277 -0.301290 0.479106
v 0.174873 -0.111332 0.479106
v 0.147357 -0.154298 0.479106
v 0.106101 -0.196087 0.479106
v 0.096537 -0.238798 0.479106
v 0.066392 -0.280723 0.479106
v -0.039191 -0.264829 0.391129
v -0.248224 -0.379527 0.318886
v 0.104474 -0.246905 -0.150160
vt 0.496749 1.691060
vt 0.496749 1.715749
vt 0.531421 1.715749
vt 0.944494 1.748858
vt 0.982604 1.609790
vt 0.982604 1.525499
vt 0.919209 1.611263
vt 0.917656 1.591271
vt 0.919209 1.611264
vt 0.935776 1.523228
vt 0.496749 1.780909
vt 0.475589 1.747468
vt 0.468353 1.742772
vt 0.475589 1.747468
vt 0.473945 1.715749
vt 0.473945 1.715749
vt 0.496749 1.691060
vt 0.492793 1.688243
vt 0.712365 1.549084
vt 0.775455 1.509541
vt 0.709864 1.513521
vt 0.672879 1.515765
vt 0.672879 1.573832
vt 0.553999 1.563905
vt 0.598510 1.620758
vt 0.672879 1.573832
vt 0.672879 1.515765
vt 0.652956 1.501467
vt 0.496750 1.598036
vt 0.496749 1.681424
vt 0.598510 1.620757
vt 0.553999 1.563905
vt 0.352468 1.751849
vt 0.439175 1.715749
vt 0.339362 1.715749
vt 0.338513 1.692261
vt 0.338401 1.693035
vt 0.339276 1.691918
vt 0.339276 1.691918
vt 0.338401 1.693035
vt 0.339362 1.715749
vt 0.439175 1.715749
vt 0.496749 1.681424
vt 0.496750 1.598036
vt 0.009971 1.327998
vt 0.005418 1.332094
vt 0.005418 1.402369
vt 0.252900 1.402369
vt 0.252900 1.314941
vt 0.245878 1.315117
vt 0.240514 1.318155
vt 0.221682 1.315464
vt 0.116479 1.278312
vt 0.047647 1.281531
vt 0.019728 1.299820
vt 0.008684 1.329208
vt 0.037303 1.322302
vt 0.079758 1.279429
vt 0.105343 1.278233
vt 0.197709 1.310851
vt 0.235994 1.313910
vt 0.252900 1.317079
vt 0.252900 1.402369
vt 0.005418 1.402369
vt 0.005418 1.329996
vt 0.802653 1.221455
vt 0.823168 1.211707
vt 0.823168 1.278159
vt 0.785796 1.278159
vt 0.785796 1.213633
vt 0.930417 1.336122
vt 0.995345 1.349543
vt 0.995345 1.402369
vt 0.747863 1.402369
vt 0.747863 1.173052
vt 0.772444 1.189257
vt 0.824159 1.261973
vt 0.892022 1.309329
vt 0.851549 1.243914
vt 0.782737 1.147158
vt 0.747863 1.147158
vt 0.747863 1.402369
vt 0.995345 1.402369
vt 0.995345 1.343880
vt 0.994745 1.343839
vt 0.889728 1.270556
vt 0.317548 1.386185
vt 0.344944 1.375495
vt 0.344944 1.399904
vt 0.301805 1.399904
vt 0.812465 1.234576
vt 0.822901 1.225045
vt 0.823168 1.224455
vt 0.823168 1.278159
vt 0.785796 1.278159
vt 0.785796 1.229654
vt 0.496013 1.245822
vt 0.500381 1.247696
vt 0.500381 1.402369
vt 0.252900 1.317079
vt 0.335805 1.332619
vt 0.368875 1.325611
vt 0.456224 1.307102
vt 0.461674 1.252172
vt 0.453627 1.248624
vt 0.434508 1.278070
vt 0.383436 1.288892
vt 0.261519 1.314726
vt 0.252900 1.314941
vt 0.500381 1.402369
vt 0.500381 1.268776
vt 0.500381 1.247696
vt 0.511628 1.252520
vt 0.594727 1.232466
vt 0.623345 1.225560
vt 0.700983 1.147158
vt 0.708586 1.147158
vt 0.747863 1.173052
vt 0.509032 1.272486
vt 0.500381 1.268776
vt 0.675932 1.147158
vt 0.647860 1.175506
vt 0.605771 1.203077
vt 0.596014 1.231256
vt 0.565260 1.258916
vt 0.096798 1.356536
vt 0.127786 1.399904
vt 0.038808 1.399904
vt 0.038808 1.375495
vt 0.087394 1.356536
vt 0.402896 1.556931
vt 0.339361 1.590050
vt 0.384175 1.634568
vt 0.430928 1.574852
vt 0.409394 1.553461
vt 0.430928 1.574851
vt 0.384176 1.634568
vt 0.496749 1.693455
vt 0.496749 1.609282
vt 0.496749 1.609282
vt 0.496749 1.693455
vt 0.539370 1.715749
vt 0.672879 1.715749
vt 0.653873 1.691473
vt 0.943837 1.918656
vt 0.982604 1.953695
vt 0.982604 1.629116
vt 0.950404 1.869613
vt 0.723586 1.791761
vt 0.672879 1.769692
vt 0.706156 1.715749
vt 0.723586 1.791761
vt 0.849009 1.836556
vt 0.849010 1.766769
vt 0.915434 1.807629
vt 0.925307 1.805930
vt 0.849010 1.766769
vt 0.849010 1.836556
vt 0.877369 1.851112
vt 0.681068 1.705291
vt 0.706156 1.715749
vt 0.672879 1.702693
vt 0.681068 1.705290
vt 0.653873 1.691473
vt 0.672879 1.702693
vt 0.664346 1.697655
vt 0.496750 1.691061
vt 0.496749 1.715749
vt 0.531420 1.715749
vt 0.396074 1.619372
vt 0.358596 1.667242
vt 0.426716 1.715749
vt 0.496750 1.691061
vt 0.387055 1.613459
vt 0.383552 1.611162
vt 0.320618 1.635570
vt 0.320619 1.642345
vt 0.351658 1.662693
vt 0.358596 1.667242
vt 0.396074 1.619371
vt 0.387736 1.529604
vt 0.395070 1.518006
vt 0.395069 1.527252
vt 0.475589 1.747469
vt 0.426716 1.715749
vt 0.496749 1.780910
vt 0.475589 1.747469
vt 0.908458 1.625808
vt 0.982604 1.525499
vt 0.935775 1.523228
vt 0.982604 1.609787
vt 0.908458 1.625807
vt 0.883260 1.717760
vt 0.912912 1.864103
vn -0.349469 0.936494 0.029179
vn -0.756409 0.654029 -0.009594
vn -0.658730 0.752379 0.000569
vn -0.658730 0.752379 0.000569
vn -0.756409 0.654029 -0.009594
vn -0.841910 0.539170 -0.021975
vn -0.841910 0.539170 -0.021975
vn -0.756409 0.654029 -0.009594
vn -0.793482 0.607566 -0.035340
vn -0.913097 0.406602 -0.030476
vn -0.710561 0.701498 -0.054815
vn -0.756409 0.654029 -0.009594
vn -0.710561 0.701498 -0.054815
vn -0.793482 0.607566 -0.035340
vn -0.756409 0.654029 -0.009594
vn -0.913097 0.406602 -0.030476
vn -0.756409 0.654029 -0.009594
vn -0.918838 0.394283 -0.016670
vn -0.811789 0.583680 -0.017760
vn -0.918838 0.394283 -0.016670
vn -0.637402 0.770526 0.002835
vn -0.637402 0.770526 0.002835
vn -0.918838 0.394283 -0.016670
vn -0.756409 0.654029 -0.009594
vn -0.637402 0.770526 0.002835
vn -0.756409 0.654029 -0.009594
vn -0.349475 0.936491 0.029179
vn -0.349475 0.936491 0.029179
vn -0.756409 0.654029 -0.009594
vn -0.349469 0.936494 0.029179
vn 0.840632 0.539259 -0.050380
vn 0.840632 0.539259 -0.050380
vn 0.712273 0.698728 -0.066677
vn 0.840632 0.539259 -0.050380
vn 0.712273 0.698728 -0.066677
vn 0.712273 0.698728 -0.066677
vn 0.712273 0.698728 -0.066677
vn 0.712273 0.698728 -0.066677
vn 0.712273 0.698728 -0.066677
vn 0.835399 0.548202 -0.039789
vn 0.840632 0.539259 -0.050380
vn 0.835399 0.548202 -0.039789
vn 0.840632 0.539259 -0.050380
vn 0.840632 0.539259 -0.050380
vn 0.835399 0.548202 -0.039789
vn 0.835399 0.548202 -0.039789
vn 0.840632 0.539259 -0.050380
vn 0.907857 0.417549 -0.038056
vn 0.732850 0.679174 -0.040674
vn 0.835399 0.548202 -0.039789
vn 0.732850 0.679174 -0.040674
vn 0.732850 0.679174 -0.040674
vn 0.835399 0.548202 -0.039789
vn 0.835399 0.548202 -0.039789
vn 0.304432 0.952464 0.011527
vn 0.525405 0.850742 -0.013733
vn 0.525405 0.850742 -0.013733
vn 0.103298 0.984342 -0.142830
vn 0.582239 0.809645 -0.073979
vn 0.582239 0.809645 -0.073979
vn 0.732850 0.679174 -0.040674
vn 0.582239 0.809645 -0.073979
vn 0.732850 0.679174 -0.040674
vn 0.732850 0.679174 -0.040674
vn 0.582239 0.809645 -0.073979
vn 0.525405 0.850742 -0.013733
vn 0.582239 0.809645 -0.073979
vn 0.582239 0.809645 -0.073979
vn 0.525405 0.850742 -0.013733
vn 0.582239 0.809645 -0.073979
vn 0.525405 0.850742 -0.013733
vn 0.525405 0.850742 -0.013733
vn -0.000027 0.000000 1.000000
vn -0.000027 0.000000 1.000000
vn -0.000027 0.000000 1.000000
vn -0.000027 0.000000 1.000000
vn -0.000027 0.000000 1.000000
vn -0.000027 0.000000 1.000000
vn -0.000027 0.000000 1.000000
vn -0.000027 0.000000 1.000000
vn -0.000027 0.000000 1.000000
vn -0.000027 0.000000 1.000000
vn -0.000027 0.000000 1.000000
vn -0.000027 0.000000 1.000000
vn -0.000027 0.000000 1.000000
vn -0.000027 0.000000 1.000000
vn -0.000027 0.000000 1.000000
vn -0.000027 0.000000 1.000000
vn -0.000027 0.000000 1.000000
vn -0.000027 0.000000 1.000000
vn -0.000027 0.000000 1.000000
vn -0.000027 0.000000 1.000000
vn -0.000027 0.000000 1.000000
vn -0.000027 0.000000 1.000000
vn -0.000027 0.000000 1.000000
vn -0.000027 0.000000 1.000000
vn -0.000027 0.000000 1.000000
vn -0.000027 0.000000 1.000000
vn -0.000027 0.000000 1.000000
vn 0.000027 0.000000 -1.000000
vn 0.000027 0.000000 -1.000000
vn 0.000027 0.000000 -1.000000
vn 0.000027 0.000000 -1.000000
vn 0.000027 0.000000 -1.000000
vn 0.000027 0.000000 -1.000000
vn 0.000027 0.000000 -1.000000
vn 0.000027 0.000000 -1.000000
vn 0.000027 0.000000 -1.000000
vn 0.000027 0.000000 -1.000000
vn 0.000027 0.000000 -1.000000
vn 0.000027 0.000000 -1.000000
vn 0.000027 0.000000 -1.000000
vn 0.000027 0.000000 -1.000000
vn 0.000027 0.000000 -1.000000
vn 0.000027 0.000000 -1.000000
vn 0.000027 0.000000 -1.000000
vn 0.000027 0.000000 -1.000000
vn 0.000027 0.000000 -1.000000
vn 0.000027 0.000000 -1.000000
vn 0.000027 0.000000 -1.000000
vn 0.000027 0.000000 -1.000000
vn 0.000027 0.000000 -1.000000
vn 0.000027 0.000000 -1.000000
vn -1.000000 0.000000 0.000000
vn -1.000000 0.000000 0.000000
vn -1.000000 0.000000 0.000000
vn -1.000000 0.000000 0.000000
vn -1.000000 0.000000 0.000000
vn -1.000000 0.000000 0.000000
vn -1.000000 0.000000 0.000000
vn -1.000000 0.000000 0.000000
vn -1.000000 0.000000 0.000000
vn -0.000000 0.000000 -1.000000
vn -0.000000 0.000000 -1.000000
vn -0.000000 0.000000 -1.000000
vn -0.000000 0.000000 -1.000000
vn -0.000000 0.000000 -1.000000
vn -0.000000 0.000000 -1.000000
vn -0.000000 0.000000 -1.000000
vn -0.000000 0.000000 -1.000000
vn -0.000000 0.000000 -1.000000
vn -0.000000 0.000000 -1.000000
vn -0.000000 0.000000 -1.000000
vn -0.000000 0.000000 -1.000000
vn -0.000000 0.000000 -1.000000
vn -0.000000 0.000000 -1.000000
vn -0.000000 0.000000 -1.000000
vn -0.000000 0.000000 -1.000000
vn -0.000000 0.000000 -1.000000
vn -0.000000 0.000000 -1.000000
vn 0.000000 0.000000 1.000000
vn 0.000000 0.000000 1.000000
vn 0.000000 0.000000 1.000000
vn 0.000000 0.000000 1.000000
vn 0.000000 0.000000 1.000000
vn 0.000000 0.000000 1.000000
vn 0.000000 0.000000 1.000000
vn 0.000000 0.000000 1.000000
vn 0.000000 0.000000 1.000000
vn 0.000000 0.000000 1.000000
vn 0.000000 0.000000 1.000000
vn 0.000000 0.000000 1.000000
vn 0.000000 0.000000 1.000000
vn 0.000000 0.000000 1.000000
vn 0.000000 0.000000 1.000000
vn 0.000000 0.000000 1.000000
vn 0.000000 0.000000 1.000000
vn 0.000000 0.000000 1.000000
vn -0.000000 1.000000 -0.000000
vn -0.000000 1.000000 -0.000000
vn -0.000000 1.000000 -0.000000
vn -0.000000 1.000000 -0.000000
vn -0.000000 1.000000 -0.000000
vn -0.000000 1.000000 -0.000000
vn 1.000000 0.000000 0.000000
vn 1.000000 0.000000 0.000000
vn 1.000000 0.000000 0.000000
vn 1.000000 0.000000 0.000000
vn 1.000000 0.000000 0.000000
vn 1.000000 0.000000 0.000000
vn 1.000000 0.000000 0.000000
vn 1.000000 0.000000 0.000000
vn 1.000000 0.000000 0.000000
vn 1.000000 0.000000 0.000000
vn 1.000000 0.000000 0.000000
vn 1.000000 0.000000 0.000000
vn 0.000000 0.000000 -1.000000
vn 0.000000 0.000000 -1.000000
vn 0.000000 0.000000 -1.000000
vn 0.000000 0.000000 -1.000000
vn 0.000000 0.000000 -1.000000
vn 0.000000 0.000000 -1.000000
vn 0.000000 0.000000 -1.000000
vn 0.000000 0.000000 -1.000000
vn 0.000000 0.000000 -1.000000
vn 0.000000 0.000000 -1.000000
vn 0.000000 0.000000 -1.000000
vn 0.000000 0.000000 -1.000000
vn 0.000000 0.000000 -1.000000
vn 0.000000 0.000000 -1.000000
vn 0.000000 0.000000 -1.000000
vn 0.000000 0.000000 -1.000000
vn 0.000000 0.000000 -1.000000
vn 0.000000 0.000000 -1.000000
vn 0.000000 0.000000 1.000000
vn 0.000000 0.000000 1.000000
vn 0.000000 0.000000 1.000000
vn 0.000000 0.000000 1.000000
vn 0.000000 0.000000 1.000000
vn 0.000000 0.000000 1.000000
vn 0.000000 0.000000 1.000000
vn 0.000000 0.000000 1.000000
vn 0.000000 0.000000 1.000000
vn 0.000000 0.000000 1.000000
vn 0.000000 0.000000 1.000000
vn 0.000000 0.000000 1.000000
vn 0.000000 0.000000 1.000000
vn 0.000000 0.000000 1.000000
vn 0.000000 0.000000 1.000000
vn 0.000000 0.000000 1.000000
vn 0.000000 0.000000 1.000000
vn 0.000000 0.000000 1.000000
vn 0.000000 0.000000 1.000000
vn 0.000000 0.000000 1.000000
vn 0.000000 0.000000 1.000000
vn 0.000000 0.000000 -1.000000
vn 0.000000 0.000000 -1.000000
vn 0.000000 0.000000 -1.000000
vn 0.000000 0.000000 -1.000000
vn 0.000000 0.000000 -1.000000
vn 0.000000 0.000000 -1.000000
vn 0.000000 0.000000 -1.000000
vn 0.000000 0.000000 -1.000000
vn 0.000000 0.000000 -1.000000
vn 0.000000 0.000000 -1.000000
vn 0.000000 0.000000 -1.000000
vn 0.000000 0.000000 -1.000000
vn 0.000000 0.000000 -1.000000
vn 0.000000 0.000000 -1.000000
vn 0.000000 0.000000 -1.000000
vn 0.000000 0.000000 -1.000000
vn 0.000000 0.000000 -1.000000
vn 0.000000 0.000000 -1.000000
vn 0.000000 0.000000 -1.000000
vn 0.000000 0.000000 -1.000000
vn 0.000000 0.000000 -1.000000
vn 0.000000 0.000000 1.000000
vn 0.000000 0.000000 1.000000
vn 0.000000 0.000000 1.000000
vn 0.000000 0.000000 1.000000
vn 0.000000 0.000000 1.000000
vn 0.000000 0.000000 1.000000
vn 0.000000 0.000000 1.000000
vn 0.000000 0.000000 1.000000
vn 0.000000 0.000000 1.000000
vn 0.000000 0.000000 1.000000
vn 0.000000 0.000000 1.000000
vn 0.000000 0.000000 1.000000
vn 0.000000 0.000000 1.000000
vn 0.000000 0.000000 1.000000
vn 0.000000 0.000000 1.000000
vn 0.000000 0.000000 1.000000
vn 0.000000 0.000000 1.000000
vn 0.000000 0.000000 1.000000
vn 0.000000 0.000000 1.000000
vn 0.000000 0.000000 1.000000
vn 0.000000 0.000000 1.000000
vn 0.000000 0.000000 1.000000
vn 0.000000 0.000000 1.000000
vn 0.000000 0.000000 1.000000
vn 0.000000 1.000000 0.000000
vn 0.000000 1.000000 0.000000
vn 0.000000 1.000000 0.000000
vn 0.000000 1.000000 0.000000
vn 0.000000 1.000000 0.000000
vn 0.000000 1.000000 0.000000
vn 0.000000 1.000000 0.000000
vn 0.000000 1.000000 0.000000
vn 0.000000 1.000000 0.000000
vn -0.724786 0.687262 -0.048545
vn -0.724786 0.687262 -0.048545
vn -0.921316 0.386860 -0.038941
vn -0.921316 0.386860 -0.038941
vn -0.921316 0.386860 -0.038941
vn -0.724786 0.687262 -0.048545
vn -0.921316 0.386860 -0.038941
vn -0.921316 0.386860 -0.038941
vn -0.724786 0.687262 -0.048545
vn -0.724786 0.687262 -0.048545
vn -0.724786 0.687262 -0.048545
vn -0.310955 0.949032 -0.051425
vn -0.310955 0.949032 -0.051425
vn -0.724786 0.687262 -0.048545
vn -0.310955 0.949032 -0.051425
vn -0.310955 0.949032 -0.051425
vn -0.310955 0.949032 -0.051425
vn -0.196803 0.978216 -0.066046
vn -0.196803 0.978216 -0.066046
vn -0.310955 0.949032 -0.051425
vn 0.058695 0.997946 -0.025679
vn -0.310955 0.949032 -0.051425
vn 0.023979 0.999618 -0.013771
vn 0.058695 0.997946 -0.025679
vn 0.202212 0.979189 0.017277
vn 0.058695 0.997946 -0.025679
vn 0.278355 0.960343 0.016110
vn 0.058695 0.997946 -0.025679
vn 0.023979 0.999618 -0.013771
vn 0.278355 0.960343 0.016110
vn 0.316551 0.948557 0.005894
vn 0.058695 0.997946 -0.025679
vn 0.202212 0.979189 0.017277
vn 0.221512 0.975155 -0.002446
vn 0.221512 0.975155 -0.002446
vn 0.316551 0.948557 0.005894
vn 0.373700 0.927236 -0.024104
vn 0.058695 0.997946 -0.025679
vn 0.221512 0.975155 -0.002446
vn 0.058695 0.997946 -0.025679
vn 0.316551 0.948557 0.005894
vn 0.221512 0.975155 -0.002446
vn -0.072141 0.997394 0.000964
vn 0.221512 0.975155 -0.002446
vn -0.072141 0.997394 0.000964
vn 0.221512 0.975155 -0.002446
vn 0.221512 0.975155 -0.002446
vn -0.072141 0.997394 0.000964
vn -0.072141 0.997394 0.000964
vn 0.221512 0.975155 -0.002446
vn -0.072141 0.997394 0.000964
vn -0.245684 0.967483 -0.060132
vn 0.058695 0.997946 -0.025679
vn 0.373700 0.927236 -0.024104
vn -0.416880 0.906027 -0.072986
vn 0.058695 0.997946 -0.025679
vn -0.245684 0.967483 -0.060132
vn -0.196803 0.978216 -0.066046
vn 0.058695 0.997946 -0.025679
vn -0.038467 0.995699 -0.084285
vn 0.058695 0.997946 -0.025679
vn -0.416880 0.906027 -0.072986
vn -0.038467 0.995699 -0.084285
vn -0.349474 0.936492 0.029179
vn -0.756409 0.654028 -0.009594
vn -0.658734 0.752376 0.000569
vn 0.127614 0.991300 0.032232
vn 0.127614 0.991300 0.032232
vn -0.349474 0.936492 0.029179
vn -0.349474 0.936492 0.029179
vn 0.127614 0.991300 0.032232
vn -0.756409 0.654028 -0.009594
vn 0.127614 0.991300 0.032232
vn -0.637396 0.770531 0.002835
vn -0.756409 0.654028 -0.009594
vn 0.552522 0.833018 0.028289
vn 0.557827 0.829491 0.027816
vn 0.552522 0.833018 0.028289
vn 0.557827 0.829491 0.027816
vn 0.552522 0.833018 0.028289
vn 0.557827 0.829491 0.027816
vn 0.127614 0.991300 0.032232
vn 0.127614 0.991300 0.032232
vn 0.552522 0.833018 0.028289
vn 0.127614 0.991300 0.032232
vn 0.552522 0.833018 0.028289
vn 0.552522 0.833018 0.028289
vn 0.552522 0.833018 0.028289
vn 0.557827 0.829491 0.027816
vn 0.552522 0.833018 0.028289
vn 0.563053 0.825968 0.027346
vn 0.557827 0.829491 0.027816
vn 0.557827 0.829491 0.027816
vn -0.918837 0.394285 -0.016670
vn -0.756409 0.654028 -0.009594
vn -0.637396 0.770531 0.002835
vn -0.913098 0.406601 -0.030476
vn -0.756409 0.654028 -0.009594
vn -0.918837 0.394285 -0.016670
vn -0.793482 0.607567 -0.035340
vn -0.756409 0.654028 -0.009594
vn -0.913098 0.406601 -0.030476
vn -0.841909 0.539171 -0.021974
vn -0.841909 0.539171 -0.021974
vn -0.793482 0.607567 -0.035340
vn -0.658734 0.752376 0.000569
vn -0.756409 0.654028 -0.009594
vn -0.841909 0.539171 -0.021974
vn -0.756409 0.654028 -0.009594
vn -0.793482 0.607567 -0.035340
vn -0.841909 0.539171 -0.021974
s off
g initialShadingGroup initialShadingGroup1 polySurface831 polySurface1
f 1/1/1 2/2/2 3/3/3
f 3/5/4 2/6/5 4/4/6
f 4/4/7 2/6/8 5/7/9
f 7/10/10 6/8/11 2/6/12
f 6/8/13 5/9/14 2/6/15
f 7/11/16 2/2/17 8/12/18
f 9/13/19 8/14/20 10/15/21
f 10/15/22 8/14/23 2/2/24
f 10/16/25 2/2/26 11/18/27
f 11/18/28 2/2/29 1/17/30
f 15/22/31 16/23/32 14/21/33
f 16/23/34 12/19/35 14/21/36
f 12/19/37 13/20/38 14/21/39
f 18/25/40 16/26/41 17/24/42
f 16/26/43 15/27/44 17/24/45
f 17/24/46 15/27/47 19/28/48
f 21/30/49 18/31/50 20/29/51
f 20/29/52 18/31/53 17/32/54
f 22/33/55 23/34/56 24/35/57
f 25/36/58 26/37/59 27/38/60
f 20/44/61 27/39/62 21/43/63
f 21/43/64 27/39/65 23/42/66
f 27/39/67 26/40/68 23/42/69
f 26/40/70 24/41/71 23/42/72
f 32/49/73 33/50/74 30/48/75
f 33/50/76 34/51/77 30/48/78
f 30/48/79 34/51/80 31/47/81
f 34/51/82 35/52/83 31/47/84
f 31/47/85 35/52/86 9/46/87
f 35/52/88 36/53/89 9/46/90
f 9/46/91 36/53/92 8/45/93
f 8/45/94 36/53/95 7/55/96
f 36/53/97 6/54/98 7/55/99
f 29/63/100 28/64/101 40/62/102
f 40/62/103 28/64/104 39/61/105
f 39/61/106 28/64/107 38/60/108
f 28/64/109 11/65/110 38/60/111
f 11/65/112 1/56/113 38/60/114
f 1/56/115 3/57/116 38/60/117
f 38/60/118 3/57/119 37/59/120
f 3/57/121 4/58/122 37/59/123
f 11/67/124 28/68/125 10/66/126
f 28/68/127 31/69/128 10/66/129
f 10/66/130 31/69/131 9/70/132
f 12/75/133 16/76/134 43/74/135
f 16/76/136 18/77/137 43/74/138
f 18/77/139 21/78/140 43/74/141
f 21/78/142 23/71/143 43/74/144
f 44/73/145 43/74/146 22/72/147
f 23/71/148 22/72/149 43/74/150
f 45/81/151 42/82/152 19/80/153
f 19/80/154 42/82/155 17/79/156
f 17/79/157 42/82/158 20/86/159
f 20/86/160 42/82/161 27/85/162
f 41/83/163 25/84/164 42/82/165
f 42/82/166 25/84/167 27/85/168
f 14/88/169 45/89/170 15/87/171
f 15/87/172 45/89/173 19/90/174
f 25/93/175 41/94/176 26/92/177
f 41/94/178 44/95/179 26/92/180
f 26/92/181 44/95/182 24/91/183
f 24/91/184 44/95/185 22/96/186
f 40/100/187 50/101/188 29/63/189
f 29/63/190 50/101/191 47/99/192
f 50/101/193 51/102/194 47/99/195
f 51/102/196 52/103/197 47/99/198
f 48/97/199 49/98/200 52/103/201
f 49/98/202 47/99/203 52/103/204
f 54/105/205 55/106/206 53/104/207
f 30/48/208 46/110/209 32/109/210
f 32/109/211 46/110/212 57/108/213
f 57/108/214 46/110/215 56/107/216
f 56/107/217 46/110/218 55/106/219
f 53/104/220 55/106/221 58/111/222
f 55/106/223 46/110/224 58/111/225
f 49/112/226 59/113/227 47/99/228
f 47/99/229 59/113/230 43/74/231
f 59/113/232 60/114/233 43/74/234
f 60/114/235 61/115/236 43/74/237
f 43/74/238 61/115/239 12/118/240
f 61/115/241 62/116/242 12/118/243
f 62/116/244 13/117/245 12/118/246
f 58/120/247 46/110/248 63/119/249
f 46/110/250 42/82/251 63/119/252
f 63/119/253 42/82/254 68/125/255
f 45/81/256 64/121/257 42/82/258
f 64/121/259 65/122/260 42/82/261
f 65/122/262 66/123/263 42/82/264
f 66/123/265 67/124/266 42/82/267
f 42/82/268 67/124/269 68/125/270
f 64/127/271 45/128/272 62/126/273
f 62/126/274 45/128/275 13/130/276
f 45/128/277 14/129/278 13/130/279
f 52/133/280 55/134/281 48/132/282
f 54/135/283 69/131/284 55/134/285
f 69/131/286 48/132/287 55/134/288
f 55/136/289 52/137/290 56/139/291
f 56/139/292 52/137/293 51/138/294
f 56/140/295 51/141/296 57/144/297
f 57/144/298 51/141/299 70/143/300
f 51/141/301 50/142/302 70/143/303
f 39/145/304 70/146/305 40/148/306
f 70/146/307 50/147/308 40/148/309
f 38/149/310 70/143/311 39/150/312
f 37/153/313 36/154/314 38/152/315
f 35/151/316 70/143/317 36/154/318
f 70/143/319 38/152/320 36/154/321
f 6/156/322 36/157/323 5/155/324
f 36/157/325 37/158/326 5/155/327
f 5/155/328 37/158/329 4/159/330
f 34/160/331 70/143/332 35/161/333
f 33/162/334 70/143/335 34/163/336
f 57/164/337 70/143/338 32/166/339
f 70/143/340 33/165/341 32/166/342
f 60/167/343 71/168/344 61/169/345
f 59/170/346 63/171/347 60/173/348
f 60/173/349 63/171/350 71/168/351
f 63/171/352 68/172/353 71/168/354
f 48/175/355 69/176/356 49/174/357
f 53/177/358 58/178/359 69/176/360
f 63/179/361 59/180/362 58/178/363
f 59/180/364 49/174/365 58/178/366
f 49/174/367 69/176/368 58/178/369
f 54/181/370 53/182/371 69/183/372
f 67/184/373 71/168/374 68/185/375
f 66/186/376 71/168/377 67/187/378
f 65/188/379 71/189/380 66/190/381
f 64/193/382 62/194/383 65/192/384
f 61/191/385 71/189/386 62/194/387
f 71/189/388 65/192/389 62/194/390
